<svg width="32" height="32" viewBox="0 0 32 32" fill="none" xmlns="http://www.w3.org/2000/svg">
<circle cx="16" cy="16" r="16" fill="#D9D9D9"/>
<path d="M15.7524 5.81818C15.6493 5.81818 15.5461 5.9007 15.4842 6.00386L13.5448 9.73823C13.5036 9.84139 13.4004 9.92391 13.2766 9.92391H10.3675C8.65507 9.92391 7.27274 11.3062 7.27274 13.0187V22.1173C7.27274 22.2205 7.35526 22.303 7.45842 22.303H23.5719C23.6751 22.303 23.7576 22.2205 23.7576 22.1173V10.1302C23.7576 10.0064 23.6751 9.94455 23.5719 9.94455H21.9007C21.7976 9.94455 21.6944 9.86202 21.6325 9.75886L19.6931 6.02449C19.6312 5.92134 19.5487 5.83881 19.4249 5.83881H15.6905L15.7524 5.81818ZM10.4088 12.0077C10.9865 12.0077 11.4404 12.4616 11.4404 13.0393C11.4404 13.617 10.9865 14.0709 10.4088 14.0709C9.83108 14.0709 9.37718 13.617 9.37718 13.0393C9.37718 12.4616 9.83108 12.0077 10.4088 12.0077ZM17.6299 12.0077C19.8994 12.0077 21.7563 13.8646 21.7563 16.1341C21.7563 18.4036 19.8994 20.2605 17.6299 20.2605C15.3604 20.2605 13.5036 18.4036 13.5036 16.1341C13.5036 13.8646 15.3604 12.0077 17.6299 12.0077ZM17.6299 14.0709C16.4952 14.0709 15.5667 14.9993 15.5667 16.1341C15.5667 17.2689 16.4952 18.1973 17.6299 18.1973C18.7647 18.1973 19.6931 17.2689 19.6931 16.1341C19.6931 14.9993 18.7647 14.0709 17.6299 14.0709Z" fill="black"/>
</svg>
